<svg version="1.1" id="Layer_1" xmlns="http://www.w3.org/2000/svg" xmlns:xlink="http://www.w3.org/1999/xlink" x="0px" y="0px"
	 width="100%" viewBox="0 0 800 800" enable-background="new 0 0 800 800" xml:space="preserve">
<path fill="#000000" opacity="1.000000" stroke="none" 
	d="
M352.224213,485.255188 
	C340.174866,493.543610 327.910797,500.509033 313.500305,502.614990 
	C290.904572,505.917114 275.949036,492.649292 275.554657,469.686493 
	C275.321259,456.094330 278.148071,443.204987 282.985168,430.745209 
	C285.001221,425.552155 284.158813,422.298767 280.227509,418.529663 
	C270.608551,409.307831 261.445709,399.611176 252.052719,390.151917 
	C250.577377,388.666168 249.328537,386.804230 247.012131,386.210907 
	C245.804016,387.923920 246.381256,389.804413 246.374435,391.547729 
	C246.317642,406.046997 246.230255,420.547882 246.405548,435.045227 
	C246.458420,439.417816 245.199829,441.372620 240.480698,441.390778 
	C228.682281,441.436188 228.680389,441.611053 228.679611,429.815308 
	C228.678223,408.982697 228.705444,388.150055 228.662750,367.317535 
	C228.652405,362.274475 229.011734,357.319519 234.528854,355.239136 
	C239.727295,353.278931 243.725693,355.746796 247.410736,359.450958 
	C261.513885,373.627197 275.746613,387.674652 289.956390,401.744476 
	C291.104553,402.881317 292.002228,404.396393 294.091156,404.841583 
	C297.104218,400.177429 300.018219,395.669037 299.760254,389.487244 
	C299.350677,379.671387 299.753540,369.824280 299.602570,359.993652 
	C299.543793,356.162994 300.940826,354.698639 304.846771,354.627899 
	C316.246674,354.421448 316.244324,354.292389 317.774048,366.792786 
	C320.057587,365.658051 321.223267,363.645233 322.615021,361.913147 
	C340.382599,339.800812 360.214630,319.974091 385.260254,306.065979 
	C395.213379,300.538879 405.657990,297.147491 417.381042,296.378235 
	C429.925323,295.554993 446.429840,309.690674 447.396454,324.564850 
	C448.457428,340.890930 445.520477,356.322693 439.641479,371.426758 
	C436.614594,379.203339 433.789154,387.124176 429.183380,394.058014 
	C425.782104,399.178589 425.812225,403.439514 429.368469,408.125488 
	C430.757721,409.956055 431.893982,411.978607 433.710815,414.787964 
	C438.414246,406.887146 442.734497,399.694183 446.991547,392.464050 
	C453.669250,381.122711 460.361359,369.789001 466.914124,358.375549 
	C468.407776,355.773895 470.171936,354.421173 473.267853,354.638947 
	C476.252869,354.848969 479.264801,354.650085 482.264221,354.686920 
	C488.555511,354.764160 489.578461,356.459900 486.392120,361.812256 
	C478.977844,374.266632 471.492218,386.678497 464.023193,399.100220 
	C456.726196,411.235779 449.448273,423.382996 442.096619,435.485413 
	C437.035767,443.816711 429.168427,443.899475 423.956543,435.683228 
	C421.012939,431.042755 418.241486,426.293121 415.370575,421.606079 
	C415.210815,421.345276 414.850281,421.207397 413.627228,420.314056 
	C396.855865,445.233154 376.928284,467.313477 352.224213,485.255188 
M422.869781,336.631165 
	C420.967712,327.551819 417.629395,324.832550 408.422760,325.056946 
	C406.444061,325.105133 404.440857,325.391418 402.506866,325.825897 
	C391.378601,328.325897 381.856476,334.087738 372.833008,340.759979 
	C354.023499,354.668274 338.887848,372.058929 325.207733,390.877655 
	C319.533142,398.683777 315.954285,406.784515 317.212219,416.759827 
	C317.853027,421.841278 317.466431,427.077087 317.272827,432.232910 
	C317.013275,439.143890 312.591400,442.957458 305.751404,441.839142 
	C302.633606,441.329376 301.947327,442.706909 301.413635,445.071930 
	C300.008453,451.299194 299.581512,457.591736 300.211517,463.933472 
	C300.987671,471.746277 305.172943,475.574219 313.015656,475.647156 
	C325.297729,475.761353 335.514465,470.034973 345.225098,463.525604 
	C368.299164,448.058014 385.982849,427.429413 400.964081,404.275238 
	C402.714752,401.569519 402.358459,399.536774 400.821686,397.005554 
	C393.651520,385.195099 386.548920,373.342194 379.560760,361.423218 
	C376.575958,356.332275 377.496185,354.828857 383.193634,354.686676 
	C397.753052,354.323395 397.698120,354.356354 405.188385,366.855988 
	C407.690491,371.031494 409.639862,375.626221 413.092712,379.259399 
	C415.549042,377.396759 416.046173,375.015930 416.798737,372.872864 
	C420.822571,361.414825 424.780487,349.924774 422.869781,336.631165 
z"/>
<path fill="#000000" opacity="1.000000" stroke="none" 
	d="
M500.290649,414.208038 
	C495.733826,421.995422 491.278961,429.420868 486.978760,436.934845 
	C485.586304,439.367950 483.859253,440.581879 480.978241,440.412598 
	C477.824646,440.227295 474.651245,440.403320 471.487061,440.368164 
	C465.338989,440.299896 464.423737,438.881470 467.498169,433.648499 
	C474.329742,422.020477 481.284851,410.464905 488.212799,398.893707 
	C495.568085,386.608826 502.950317,374.340088 510.320526,362.064178 
	C510.834747,361.207611 511.309021,360.324280 511.866699,359.497162 
	C517.176086,351.622803 524.779114,351.616577 529.746948,359.720612 
	C539.318481,375.334717 548.697876,391.066559 558.153259,406.751862 
	C563.569153,415.736176 568.991516,424.716614 574.383911,433.715027 
	C577.343384,438.653595 576.478638,440.210785 570.774780,440.351837 
	C556.128662,440.713928 555.850342,440.863281 548.966675,428.034882 
	C545.838623,422.205505 542.259338,419.455811 535.343811,420.041260 
	C527.074951,420.741302 518.701111,420.290466 510.374603,420.187775 
	C505.173553,420.123657 504.182526,418.218201 506.737610,413.635529 
	C507.791626,411.745117 509.002808,409.936218 509.964203,408.001648 
	C511.394501,405.123322 513.637756,403.945129 516.804443,403.998871 
	C522.267883,404.091614 527.734070,404.024567 533.985535,404.024567 
	C530.020569,395.702148 525.423584,388.600555 520.259827,380.619263 
	C513.331482,392.253784 506.892090,403.067169 500.290649,414.208038 
z"/>
<path fill="#000000" opacity="1.000000" stroke="none" 
	d="
M495.997009,455.332764 
	C496.795166,453.513123 496.885498,451.402802 499.027008,451.363312 
	C501.287292,451.321625 501.861115,453.363800 502.602051,455.013733 
	C503.747772,457.564941 504.435394,460.342834 506.473022,462.790588 
	C508.878876,460.211914 509.632874,456.921631 511.162109,454.072418 
	C511.862305,452.767822 512.384033,451.137573 514.293457,451.364746 
	C515.883728,451.553894 516.303833,452.983307 516.655884,454.263397 
	C518.146729,459.683594 519.584900,465.118286 521.032043,470.509277 
	C517.489990,471.806030 517.489990,471.806030 513.186890,460.979645 
	C511.764496,464.073547 510.539062,466.710693 509.339844,469.359741 
	C508.765717,470.627991 508.039062,471.851227 506.508301,471.810028 
	C505.030518,471.770203 504.204346,470.630432 503.644592,469.343079 
	C502.520233,466.757263 501.394897,464.171875 500.039825,461.057190 
	C498.212646,463.758606 498.071594,466.599579 497.185547,469.143524 
	C496.574280,470.898499 495.554016,472.233154 493.529816,471.561066 
	C491.462677,470.874817 492.249176,469.117035 492.603394,467.737610 
	C493.637329,463.711182 494.777832,459.712097 495.997009,455.332764 
z"/>
<path fill="#000000" opacity="1.000000" stroke="none" 
	d="
M450.999390,463.417542 
	C451.039368,469.505768 449.424591,471.494507 444.030884,471.906097 
	C440.717224,472.158966 437.367554,472.034760 434.037781,471.943329 
	C432.263092,471.894592 429.986664,472.067169 429.933685,469.448151 
	C429.880402,466.813843 432.108398,466.912567 433.922150,466.848206 
	C436.585968,466.753662 439.255219,466.819244 441.920074,466.743591 
	C443.482574,466.699219 445.269775,467.089447 446.407990,464.955688 
	C443.318665,462.141571 439.700104,463.670715 436.471466,463.433075 
	C433.336121,463.202301 430.718781,462.410400 429.942596,459.168396 
	C429.054626,455.459534 430.196899,452.513733 434.347931,451.591553 
	C438.461212,450.677765 442.642426,450.958252 446.798706,451.155853 
	C448.493439,451.236420 450.277893,451.618622 450.075348,453.975220 
	C449.901703,455.995636 448.283569,456.079437 446.758545,456.223846 
	C442.880219,456.590942 438.886597,455.561646 434.580048,457.057648 
	C436.378235,459.906525 438.891510,458.772430 440.930267,459.032501 
	C444.602997,459.501038 448.849304,458.474487 450.999390,463.417542 
z"/>
<path fill="#000000" opacity="1.000000" stroke="none" 
	d="
M414.882385,459.706177 
	C418.596619,460.836914 419.529999,463.364471 419.104309,466.445496 
	C418.656769,469.684235 416.472412,471.464752 413.317230,471.653900 
	C409.175690,471.902161 405.013885,471.898102 400.862488,471.852203 
	C399.312927,471.835083 397.807098,471.297028 397.917267,469.257233 
	C398.026398,467.236725 399.579132,467.039581 401.121155,466.887665 
	C405.232086,466.482666 409.420227,467.431793 413.476318,466.182281 
	C413.734467,466.102753 413.891663,465.695618 414.117004,465.414490 
	C413.994019,463.183472 412.271881,463.452484 410.838898,463.405884 
	C408.179382,463.319458 405.499939,463.497742 402.860107,463.242310 
	C399.582672,462.925140 397.849792,460.910614 397.712555,457.590973 
	C397.585815,454.525238 398.909698,452.393372 401.945618,451.705841 
	C406.370026,450.703888 410.875366,450.923279 415.357758,451.258148 
	C416.726776,451.360413 418.039490,451.843781 418.085297,453.573059 
	C418.137695,455.552734 416.777313,456.023376 415.149139,456.198334 
	C411.133087,456.629852 406.975586,455.475616 401.639618,457.456970 
	C406.474670,459.995270 410.757721,458.437531 414.882385,459.706177 
z"/>
<path fill="#000000" opacity="1.000000" stroke="none" 
	d="
M565.537170,451.148590 
	C567.710266,451.473999 569.415222,451.878265 569.002136,454.206268 
	C568.654846,456.163849 566.969482,456.077271 565.485657,456.217590 
	C561.655884,456.579742 557.682007,455.486908 553.871643,457.001465 
	C554.417236,459.490387 556.185120,458.912964 557.531982,459.045776 
	C560.172424,459.306122 562.835449,459.359833 565.467712,459.676697 
	C568.640320,460.058624 570.053528,462.249176 570.172241,465.179535 
	C570.289917,468.082611 569.080017,470.457611 566.067383,471.257324 
	C561.171814,472.556976 556.163391,471.965485 551.197876,471.763580 
	C549.702454,471.702728 548.782410,470.758575 548.910889,469.102325 
	C549.023621,467.650818 550.032837,467.064636 551.259521,467.003326 
	C554.243896,466.854126 557.240417,466.929077 560.222168,466.749878 
	C561.914185,466.648193 563.954529,467.427673 565.249939,465.079865 
	C563.651367,462.271149 560.853882,463.498688 558.651733,463.430389 
	C551.147888,463.197662 548.698608,461.819092 548.707581,457.347473 
	C548.716675,452.819824 551.280579,451.181091 558.614807,451.070465 
	C560.773804,451.037903 562.934082,451.095947 565.537170,451.148590 
z"/>
<path fill="#000000" opacity="1.000000" stroke="none" 
	d="
M544.028809,463.982483 
	C545.127258,466.519348 547.528625,468.101379 547.197144,470.822113 
	C546.020691,472.136108 544.058838,472.256073 543.559814,471.363647 
	C540.501099,465.893036 534.824951,467.797577 530.194336,466.252380 
	C527.926147,468.158264 527.504333,473.243103 521.921875,471.048798 
	C523.266785,466.682922 526.131531,463.240936 528.325195,459.507324 
	C534.778320,448.524231 534.830994,448.555420 541.286499,459.390747 
	C542.137451,460.819061 542.991638,462.245514 544.028809,463.982483 
z"/>
<path fill="#000000" opacity="1.000000" stroke="none" 
	d="
M481.994202,450.998657 
	C484.300446,451.024811 486.132172,450.983948 487.954498,451.096161 
	C489.501099,451.191406 491.060425,451.542206 491.097809,453.533783 
	C491.140472,455.808197 489.477112,456.154449 487.699921,456.215485 
	C486.371674,456.261078 485.015930,456.421875 483.716583,456.231018 
	C478.771332,455.504517 477.741486,458.141602 477.949707,462.364899 
	C478.100769,465.428375 479.141693,467.024841 482.427612,466.786804 
	C484.409424,466.643250 486.414276,466.768433 488.406647,466.835815 
	C489.845245,466.884430 491.036163,467.316559 491.121338,469.071686 
	C491.200287,470.698608 490.323669,471.732910 488.836487,471.769501 
	C484.361542,471.879639 479.876648,471.910889 475.406006,471.724243 
	C473.373749,471.639404 472.803192,469.944214 472.792908,468.111298 
	C472.778015,465.452240 472.787781,462.792847 472.750275,460.134155 
	C472.621155,450.981689 472.615051,450.981781 481.994202,450.998657 
z"/>
<path fill="#000000" opacity="1.000000" stroke="none" 
	d="
M459.783813,463.067047 
	C459.928406,459.122986 460.092529,455.692108 454.929993,456.022308 
	C453.642212,456.104706 452.843140,455.141296 452.791229,453.743286 
	C452.727173,452.018890 453.832031,451.257080 455.265869,451.222626 
	C459.924744,451.110718 464.588226,451.102356 469.248138,451.174042 
	C470.668823,451.195923 471.884186,451.914062 471.941071,453.562408 
	C471.995941,455.153076 471.054352,456.185150 469.507751,456.116028 
	C464.985229,455.914001 464.950012,458.869141 465.030701,462.078186 
	C465.085083,464.241028 465.031097,466.412598 464.896332,468.572174 
	C464.798462,470.140533 464.346771,471.670593 462.345551,471.606903 
	C460.448456,471.546539 459.861816,470.203400 459.833344,468.522675 
	C459.805145,466.856598 459.801056,465.190063 459.783813,463.067047 
z"/>
<path fill="#000000" opacity="1.000000" stroke="none" 
	d="
M426.962952,462.914734 
	C426.875275,465.365173 426.851166,467.348999 426.674927,469.319244 
	C426.565338,470.544647 425.999176,471.616302 424.555054,471.613647 
	C423.031281,471.610870 421.962372,470.780914 421.936401,469.228271 
	C421.850830,464.110413 421.859192,458.990479 421.883545,453.871582 
	C421.891174,452.269226 422.890320,451.442688 424.421875,451.444275 
	C426.044159,451.445953 426.783966,452.531097 426.835114,454.019196 
	C426.931610,456.825043 426.925629,459.634430 426.962952,462.914734 
z"/>
<path fill="#000000" opacity="1.000000" stroke="none" 
	d="
M488.350555,459.473572 
	C490.414825,460.668579 490.739594,462.324493 488.921326,462.937744 
	C486.112579,463.885071 483.030884,463.566742 480.083374,463.035797 
	C479.140930,462.866028 478.884888,462.000793 478.979889,461.097992 
	C479.078949,460.156494 479.690247,459.648438 480.548157,459.432343 
	C483.000458,458.814697 485.468048,458.941589 488.350555,459.473572 
z"/>
</svg>